<svg width="75" height="75" viewBox="0 0 75 75" fill="none" xmlns="http://www.w3.org/2000/svg">
<g clip-path="url(#clip0_1_14142)">
<g clip-path="url(#clip1_1_14142)">
<path d="M27 30C29.7614 30 32 27.7614 32 25C32 22.2386 29.7614 20 27 20C24.2386 20 22 22.2386 22 25C22 27.7614 24.2386 30 27 30Z" stroke="white" stroke-width="2" stroke-linecap="round" stroke-linejoin="round"/>
<path d="M27 14V16" stroke="white" stroke-width="2" stroke-linecap="round" stroke-linejoin="round"/>
<path d="M27 34V36" stroke="white" stroke-width="2" stroke-linecap="round" stroke-linejoin="round"/>
<path d="M19.2202 17.2188L20.6402 18.6388" stroke="white" stroke-width="2" stroke-linecap="round" stroke-linejoin="round"/>
<path d="M33.3599 31.3594L34.7799 32.7794" stroke="white" stroke-width="2" stroke-linecap="round" stroke-linejoin="round"/>
<path d="M16 25H18" stroke="white" stroke-width="2" stroke-linecap="round" stroke-linejoin="round"/>
<path d="M36 25H38" stroke="white" stroke-width="2" stroke-linecap="round" stroke-linejoin="round"/>
<path d="M19.2202 32.7794L20.6402 31.3594" stroke="white" stroke-width="2" stroke-linecap="round" stroke-linejoin="round"/>
<path d="M33.3599 18.6388L34.7799 17.2188" stroke="white" stroke-width="2" stroke-linecap="round" stroke-linejoin="round"/>
</g>
<path d="M55.9999 49.79C55.8426 51.4922 55.2038 53.1144 54.1581 54.4668C53.1125 55.8192 51.7034 56.8458 50.0956 57.4265C48.4878 58.0073 46.7479 58.1181 45.0794 57.7461C43.4109 57.3741 41.8829 56.5345 40.6741 55.3258C39.4654 54.117 38.6258 52.589 38.2538 50.9205C37.8818 49.252 37.9926 47.5121 38.5734 45.9043C39.1541 44.2965 40.1807 42.8874 41.5331 41.8418C42.8855 40.7961 44.5077 40.1573 46.2099 40C45.2133 41.3483 44.7338 43.0094 44.8584 44.6814C44.9831 46.3534 45.7038 47.9251 46.8893 49.1106C48.0748 50.2961 49.6465 51.0168 51.3185 51.1415C52.9905 51.2662 54.6516 50.7866 55.9999 49.79Z" stroke="white" stroke-width="2" stroke-linecap="round" stroke-linejoin="round"/>
<line x1="15.7226" y1="53.584" x2="60.7226" y2="23.584" stroke="white"/>
<rect x="1.5" y="1.5" width="72" height="72" stroke="white" stroke-width="3"/>
</g>
<defs>
<clipPath id="clip0_1_14142">
<rect width="75" height="75" fill="white"/>
</clipPath>
<clipPath id="clip1_1_14142">
<rect width="24" height="24" fill="white" transform="translate(15 13)"/>
</clipPath>
</defs>
</svg>
