<svg width="92" height="12" viewBox="0 0 92 12" fill="none" xmlns="http://www.w3.org/2000/svg">
<path d="M2.17236 6.81787V11H0.773438V0.680176H8.10498V1.82275H2.17236V5.66064H7.9292V6.81787H2.17236ZM11.7451 11.1465C10.9492 11.1465 10.3511 10.9365 9.95068 10.5166C9.55029 10.0967 9.3501 9.52051 9.3501 8.78809C9.3501 7.96777 9.61865 7.33789 10.1558 6.89844C10.6978 6.45898 11.5693 6.22461 12.7705 6.19531L14.5503 6.16602V5.73389C14.5503 5.08936 14.4136 4.62793 14.1401 4.34961C13.8667 4.07129 13.437 3.93213 12.8511 3.93213C12.2603 3.93213 11.8306 4.03223 11.562 4.23242C11.2935 4.43262 11.1323 4.75244 11.0786 5.19189L9.70166 5.06738C9.92627 3.6416 10.9858 2.92871 12.8804 2.92871C13.8765 2.92871 14.626 3.1582 15.1289 3.61719C15.6318 4.07129 15.8833 4.73047 15.8833 5.59473V9.00781C15.8833 9.39844 15.9346 9.69385 16.0371 9.89404C16.1396 10.0894 16.335 10.187 16.623 10.187C16.7598 10.187 16.9038 10.1699 17.0552 10.1357V10.9561C16.8892 10.9951 16.7207 11.0244 16.5498 11.0439C16.3789 11.0635 16.208 11.0732 16.0371 11.0732C15.5488 11.0732 15.1924 10.9463 14.9678 10.6924C14.748 10.4336 14.6235 10.0308 14.5942 9.48389H14.5503C14.2134 10.0894 13.8203 10.519 13.3711 10.7729C12.9268 11.022 12.3848 11.1465 11.7451 11.1465ZM14.5503 7.08887L13.1074 7.11816C12.4922 7.12305 12.0234 7.18652 11.7012 7.30859C11.3789 7.42578 11.1323 7.60645 10.9614 7.85059C10.7905 8.09473 10.7051 8.41455 10.7051 8.81006C10.7051 9.23975 10.8198 9.57178 11.0493 9.80615C11.2837 10.0405 11.6157 10.1577 12.0454 10.1577C12.5337 10.1577 12.9634 10.0479 13.3345 9.82812C13.7104 9.6084 14.0059 9.30811 14.2207 8.92725C14.4404 8.5415 14.5503 8.146 14.5503 7.74072V7.08887ZM19.3916 0.130859V11H18.0732V0.130859H19.3916ZM22.4238 7.31592C22.4238 8.22412 22.6118 8.9248 22.9878 9.41797C23.3638 9.91113 23.9131 10.1577 24.6357 10.1577C25.207 10.1577 25.6636 10.043 26.0054 9.81348C26.3521 9.58398 26.5864 9.29346 26.7085 8.94189L27.8657 9.27148C27.3921 10.5215 26.3154 11.1465 24.6357 11.1465C23.4639 11.1465 22.5703 10.7974 21.9551 10.0991C21.3447 9.40088 21.0396 8.36328 21.0396 6.98633C21.0396 5.67773 21.3447 4.67432 21.9551 3.97607C22.5703 3.27783 23.4468 2.92871 24.5845 2.92871C25.7515 2.92871 26.6255 3.28027 27.2065 3.9834C27.7876 4.68652 28.0781 5.73877 28.0781 7.14014V7.31592H22.4238ZM26.7158 6.30518C26.6426 5.47021 26.4302 4.8623 26.0786 4.48145C25.7271 4.0957 25.2217 3.90283 24.5625 3.90283C23.9229 3.90283 23.415 4.11768 23.0391 4.54736C22.668 4.97217 22.4678 5.55811 22.4385 6.30518H26.7158ZM36.9771 11.1465C35.8687 11.1465 35.0215 10.7974 34.4355 10.0991C33.8545 9.396 33.564 8.37305 33.564 7.03027C33.564 5.69727 33.8569 4.68164 34.4429 3.9834C35.0288 3.28027 35.8687 2.92871 36.9624 2.92871C37.7729 2.92871 38.4443 3.13867 38.9766 3.55859C39.5137 3.97852 39.8506 4.55713 39.9873 5.29443L38.6323 5.39697C38.564 4.95752 38.3906 4.6084 38.1123 4.34961C37.834 4.09082 37.4385 3.96143 36.9258 3.96143C36.2275 3.96143 35.7222 4.19336 35.4097 4.65723C35.0972 5.12109 34.9409 5.90234 34.9409 7.00098C34.9409 8.05566 35.1069 8.83691 35.439 9.34473C35.771 9.85254 36.2715 10.1064 36.9404 10.1064C37.4092 10.1064 37.7998 9.97949 38.1123 9.72559C38.4297 9.47168 38.625 9.08105 38.6982 8.55371L40.0312 8.6416C39.9629 9.14941 39.792 9.59131 39.5186 9.96729C39.25 10.3433 38.8984 10.6338 38.4639 10.8389C38.0342 11.0439 37.5386 11.1465 36.9771 11.1465ZM48.1392 7.03027C48.1392 8.41699 47.834 9.44971 47.2236 10.1284C46.6133 10.8071 45.7271 11.1465 44.5649 11.1465C43.4077 11.1465 42.5337 10.7949 41.9429 10.0918C41.3521 9.38379 41.0566 8.36328 41.0566 7.03027C41.0566 5.66309 41.3521 4.6377 41.9429 3.9541C42.5386 3.27051 43.4272 2.92871 44.6089 2.92871C45.8198 2.92871 46.7109 3.26318 47.2822 3.93213C47.8535 4.59619 48.1392 5.62891 48.1392 7.03027ZM46.7549 7.03027C46.7549 5.93652 46.5913 5.14307 46.2642 4.6499C45.9419 4.15186 45.3975 3.90283 44.6309 3.90283C43.8594 3.90283 43.3003 4.15674 42.9536 4.66455C42.6118 5.16748 42.4409 5.95605 42.4409 7.03027C42.4409 8.0752 42.6094 8.86133 42.9463 9.38867C43.2881 9.91113 43.8228 10.1724 44.5503 10.1724C45.3413 10.1724 45.9053 9.91846 46.2422 9.41064C46.584 8.90283 46.7549 8.10938 46.7549 7.03027ZM51.1348 6.40771V11H49.8164V4.76709C49.8164 4.30322 49.8115 3.93213 49.8018 3.65381C49.7969 3.37061 49.7871 3.17773 49.7725 3.0752H51.0176C51.0273 3.16797 51.0347 3.28516 51.0396 3.42676C51.0493 3.56836 51.0566 3.72461 51.0615 3.89551C51.0664 4.06641 51.0713 4.24463 51.0762 4.43018H51.0981C51.4009 3.8833 51.75 3.49756 52.1455 3.27295C52.5459 3.04346 53.0415 2.92871 53.6323 2.92871C54.5015 2.92871 55.1362 3.15088 55.5366 3.59521C55.9419 4.03955 56.1445 4.74756 56.1445 5.71924V11H54.8188V5.97559C54.8188 5.21875 54.6968 4.69141 54.4526 4.39355C54.2085 4.0957 53.7861 3.94678 53.1855 3.94678C52.5508 3.94678 52.0503 4.16406 51.6841 4.59863C51.3179 5.0332 51.1348 5.63623 51.1348 6.40771ZM64.8384 7.03027C64.8384 8.41699 64.5332 9.44971 63.9229 10.1284C63.3125 10.8071 62.4263 11.1465 61.2642 11.1465C60.1069 11.1465 59.2329 10.7949 58.6421 10.0918C58.0513 9.38379 57.7559 8.36328 57.7559 7.03027C57.7559 5.66309 58.0513 4.6377 58.6421 3.9541C59.2378 3.27051 60.1265 2.92871 61.3081 2.92871C62.519 2.92871 63.4102 3.26318 63.9814 3.93213C64.5527 4.59619 64.8384 5.62891 64.8384 7.03027ZM63.4541 7.03027C63.4541 5.93652 63.2905 5.14307 62.9634 4.6499C62.6411 4.15186 62.0967 3.90283 61.3301 3.90283C60.5586 3.90283 59.9995 4.15674 59.6528 4.66455C59.311 5.16748 59.1401 5.95605 59.1401 7.03027C59.1401 8.0752 59.3086 8.86133 59.6455 9.38867C59.9873 9.91113 60.522 10.1724 61.2495 10.1724C62.0405 10.1724 62.6045 9.91846 62.9414 9.41064C63.2832 8.90283 63.4541 8.10938 63.4541 7.03027ZM72.4336 8.81006C72.4336 9.55713 72.1504 10.1333 71.584 10.5386C71.0225 10.9438 70.2339 11.1465 69.2183 11.1465C68.2319 11.1465 67.4702 10.9854 66.9331 10.6631C66.4009 10.3359 66.0542 9.82812 65.8931 9.13965L67.0576 8.9126C67.1699 9.3374 67.4019 9.6499 67.7534 9.8501C68.105 10.0454 68.5933 10.1431 69.2183 10.1431C69.8872 10.1431 70.3755 10.0405 70.6831 9.83545C70.9956 9.63037 71.1519 9.32275 71.1519 8.9126C71.1519 8.6001 71.0444 8.34619 70.8296 8.15088C70.6147 7.95557 70.2681 7.79443 69.7896 7.66748C69.2231 7.51611 68.7715 7.3916 68.4346 7.29395C68.1025 7.19629 67.8462 7.11328 67.6655 7.04492C67.4849 6.97168 67.3408 6.90332 67.2334 6.83984C66.9111 6.6543 66.6597 6.42725 66.479 6.15869C66.2983 5.89014 66.208 5.56055 66.208 5.16992C66.208 4.44727 66.4644 3.89795 66.9771 3.52197C67.4946 3.14111 68.2466 2.95068 69.2329 2.95068C70.1069 2.95068 70.8003 3.10449 71.313 3.41211C71.8306 3.71973 72.1577 4.21289 72.2944 4.8916L71.1079 5.03809C71.0347 4.68652 70.8369 4.41797 70.5146 4.23242C70.1973 4.04199 69.77 3.94678 69.2329 3.94678C68.6372 3.94678 68.1978 4.03711 67.9146 4.21777C67.6313 4.39844 67.4897 4.67188 67.4897 5.03809C67.4897 5.30664 67.5703 5.52881 67.7314 5.70459C67.8926 5.87549 68.2002 6.01709 68.6543 6.12939C69.2646 6.27588 69.8457 6.43701 70.3975 6.61279C70.9492 6.78369 71.3447 6.95459 71.584 7.12549C71.8623 7.32568 72.0723 7.5625 72.2139 7.83594C72.3604 8.10449 72.4336 8.4292 72.4336 8.81006ZM77.0259 11.1465C75.9175 11.1465 75.0703 10.7974 74.4844 10.0991C73.9033 9.396 73.6128 8.37305 73.6128 7.03027C73.6128 5.69727 73.9058 4.68164 74.4917 3.9834C75.0776 3.28027 75.9175 2.92871 77.0112 2.92871C77.8218 2.92871 78.4932 3.13867 79.0254 3.55859C79.5625 3.97852 79.8994 4.55713 80.0361 5.29443L78.6812 5.39697C78.6128 4.95752 78.4395 4.6084 78.1611 4.34961C77.8828 4.09082 77.4873 3.96143 76.9746 3.96143C76.2764 3.96143 75.771 4.19336 75.4585 4.65723C75.146 5.12109 74.9897 5.90234 74.9897 7.00098C74.9897 8.05566 75.1558 8.83691 75.4878 9.34473C75.8198 9.85254 76.3203 10.1064 76.9893 10.1064C77.458 10.1064 77.8486 9.97949 78.1611 9.72559C78.4785 9.47168 78.6738 9.08105 78.7471 8.55371L80.0801 8.6416C80.0117 9.14941 79.8408 9.59131 79.5674 9.96729C79.2988 10.3433 78.9473 10.6338 78.5127 10.8389C78.083 11.0439 77.5874 11.1465 77.0259 11.1465ZM88.188 7.03027C88.188 8.41699 87.8828 9.44971 87.2725 10.1284C86.6621 10.8071 85.7759 11.1465 84.6138 11.1465C83.4565 11.1465 82.5825 10.7949 81.9917 10.0918C81.4009 9.38379 81.1055 8.36328 81.1055 7.03027C81.1055 5.66309 81.4009 4.6377 81.9917 3.9541C82.5874 3.27051 83.4761 2.92871 84.6577 2.92871C85.8687 2.92871 86.7598 3.26318 87.3311 3.93213C87.9023 4.59619 88.188 5.62891 88.188 7.03027ZM86.8037 7.03027C86.8037 5.93652 86.6401 5.14307 86.313 4.6499C85.9907 4.15186 85.4463 3.90283 84.6797 3.90283C83.9082 3.90283 83.3491 4.15674 83.0024 4.66455C82.6606 5.16748 82.4897 5.95605 82.4897 7.03027C82.4897 8.0752 82.6582 8.86133 82.9951 9.38867C83.3369 9.91113 83.8716 10.1724 84.5991 10.1724C85.3901 10.1724 85.9541 9.91846 86.291 9.41064C86.6328 8.90283 86.8037 8.10938 86.8037 7.03027ZM91.623 3.0752V4.59131H90.1948V3.0752H91.623ZM91.623 9.48389V11H90.1948V9.48389H91.623Z" fill="black"/>
</svg>
