<svg xmlns="http://www.w3.org/2000/svg" xmlns:xlink="http://www.w3.org/1999/xlink" width="500" zoomAndPan="magnify" viewBox="0 0 375 374.999991" height="500" preserveAspectRatio="xMidYMid meet" version="1.0"><defs><clipPath id="2219dfb8a0"><path d="M 1 111 L 261 111 L 261 236 L 1 236 Z M 1 111 " clip-rule="nonzero"/></clipPath><clipPath id="22e8ff8afc"><path d="M 172.234375 0 L 372.882812 163.375 L 200.511719 375.074219 L -0.140625 211.699219 Z M 172.234375 0 " clip-rule="nonzero"/></clipPath><clipPath id="d2f1b56314"><path d="M 172.234375 0 L 372.882812 163.375 L 200.511719 375.074219 L -0.140625 211.699219 Z M 172.234375 0 " clip-rule="nonzero"/></clipPath><clipPath id="05a178c734"><path d="M 172.234375 0 L 372.882812 163.375 L 200.511719 375.074219 L -0.140625 211.699219 Z M 172.234375 0 " clip-rule="nonzero"/></clipPath><clipPath id="bd79683754"><path d="M 253 127 L 344 127 L 344 221 L 253 221 Z M 253 127 " clip-rule="nonzero"/></clipPath><clipPath id="1d12c43a04"><path d="M 172.234375 0 L 372.882812 163.375 L 200.511719 375.074219 L -0.140625 211.699219 Z M 172.234375 0 " clip-rule="nonzero"/></clipPath><clipPath id="7a24420715"><path d="M 172.234375 0 L 372.882812 163.375 L 200.511719 375.074219 L -0.140625 211.699219 Z M 172.234375 0 " clip-rule="nonzero"/></clipPath><clipPath id="a6320c8331"><path d="M 172.234375 0 L 372.882812 163.375 L 200.511719 375.074219 L -0.140625 211.699219 Z M 172.234375 0 " clip-rule="nonzero"/></clipPath></defs><g clip-path="url(#2219dfb8a0)"><g clip-path="url(#22e8ff8afc)"><g clip-path="url(#d2f1b56314)"><g clip-path="url(#05a178c734)"><path fill="#683f35" d="M 255.371094 164.363281 C 247.597656 162.015625 237.074219 156.164062 230.4375 151.40625 C 228.269531 149.847656 230.910156 150.03125 233.375 149.792969 C 235.226562 149.617188 242.945312 151.015625 244.769531 151.308594 C 251.605469 152.429688 253.875 152.308594 260.53125 154.1875 Z M 216.003906 141.3125 C 213.898438 139.933594 211.605469 138.945312 209.257812 138.117188 C 206.96875 137.3125 204.503906 136.472656 202.054688 136.367188 C 201.226562 136.339844 200.535156 136.394531 199.84375 136.894531 C 199.234375 137.328125 198.6875 138.125 198.609375 138.886719 C 198.445312 140.359375 199.433594 142.25 201.109375 142.320312 C 202.066406 142.347656 203.011719 142.550781 203.945312 142.769531 C 204.207031 142.828125 204.472656 142.914062 204.734375 142.972656 C 204.824219 142.992188 204.925781 143.023438 205.015625 143.042969 C 204.851562 142.988281 204.75 142.957031 205.042969 143.039062 C 205.101562 143.0625 205.171875 143.070312 205.234375 143.089844 C 205.175781 143.097656 205.117188 143.074219 205.058594 143.050781 C 205.660156 143.234375 206.234375 143.414062 206.8125 143.625 C 207.917969 144.011719 209.015625 144.4375 210.089844 144.925781 C 210.582031 145.148438 211.078125 145.367188 211.542969 145.617188 C 211.738281 145.726562 211.9375 145.832031 212.132812 145.941406 C 212.011719 145.867188 211.949219 145.816406 212.191406 145.964844 C 212.890625 146.40625 213.546875 146.707031 214.394531 146.621094 C 215.128906 146.542969 215.984375 146.128906 216.417969 145.527344 C 217.296875 144.355469 217.410156 142.222656 216.003906 141.3125 Z M 212.164062 145.96875 C 212.179688 145.980469 212.253906 146.015625 212.300781 146.050781 C 212.253906 146.015625 212.179688 145.980469 212.148438 145.953125 C 212.148438 145.953125 212.148438 145.953125 212.164062 145.96875 Z M 212.480469 146.148438 C 212.453125 146.152344 212.390625 146.101562 212.316406 146.066406 C 212.363281 146.101562 212.4375 146.136719 212.480469 146.148438 Z M 177.960938 129.261719 C 181.316406 133.007812 185.289062 136.058594 189.863281 138.207031 C 191.285156 138.875 193.25 138.144531 193.839844 136.660156 C 194.433594 135.101562 193.820312 133.414062 192.292969 132.6875 C 191.308594 132.21875 190.328125 131.707031 189.390625 131.148438 C 189.359375 131.152344 189.34375 131.136719 189.328125 131.125 C 189.285156 131.117188 189.253906 131.089844 189.207031 131.050781 C 188.992188 130.902344 188.78125 130.785156 188.566406 130.632812 C 188.109375 130.339844 187.652344 130.015625 187.21875 129.691406 C 186.371094 129.050781 185.5625 128.394531 184.777344 127.675781 C 184.398438 127.316406 184.035156 126.96875 183.671875 126.621094 C 183.484375 126.441406 183.324219 126.261719 183.132812 126.082031 C 183.039062 125.976562 182.925781 125.859375 182.828125 125.753906 C 182.265625 125.117188 181.691406 124.648438 180.839844 124.523438 C 180.117188 124.425781 179.207031 124.589844 178.628906 125.050781 C 177.453125 125.953125 176.789062 128.003906 177.960938 129.261719 Z M 157.949219 117.679688 C 158.582031 117.597656 159.21875 117.546875 159.84375 117.539062 C 159.871094 117.535156 159.902344 117.535156 159.957031 117.527344 C 160.042969 117.519531 160.15625 117.535156 160.203125 117.546875 C 160.5 117.558594 160.789062 117.585938 161.09375 117.625 C 161.726562 117.703125 162.347656 117.792969 162.976562 117.945312 C 163.035156 117.964844 163.382812 118.015625 163.617188 118.078125 C 163.53125 118.058594 163.53125 118.058594 163.75 118.132812 C 163.929688 118.203125 164.105469 118.242188 164.28125 118.308594 C 164.84375 118.507812 165.40625 118.734375 165.945312 118.992188 C 166.230469 119.117188 166.484375 119.25 166.757812 119.390625 C 166.878906 119.464844 167.027344 119.535156 167.148438 119.609375 C 167.15625 119.628906 167.179688 119.648438 167.203125 119.667969 C 167.347656 119.808594 167.773438 120.011719 167.882812 120.101562 C 168.128906 120.277344 168.359375 120.464844 168.605469 120.640625 C 169.136719 121.070312 169.621094 121.519531 170.113281 121.996094 C 171.210938 123.121094 173.4375 122.761719 174.339844 121.558594 C 175.40625 120.125 175.101562 118.53125 173.910156 117.328125 C 169.683594 113.035156 163.320312 110.957031 157.371094 111.699219 C 155.808594 111.902344 154.433594 113.367188 154.6875 114.996094 C 154.890625 116.582031 156.289062 117.878906 157.949219 117.679688 Z M 104.453125 132.980469 C 105.773438 134.054688 107.59375 133.753906 108.683594 132.542969 C 109.414062 131.742188 110.109375 130.886719 110.867188 130.082031 C 111.421875 129.496094 111.992188 128.953125 112.53125 128.386719 C 112.6875 128.226562 112.871094 128.066406 113.039062 127.921875 C 113.40625 127.597656 113.789062 127.289062 114.167969 126.976562 C 114.890625 126.375 115.660156 125.8125 116.464844 125.300781 C 116.917969 125 117.386719 124.710938 117.859375 124.445312 C 117.9375 124.382812 117.976562 124.363281 118.019531 124.34375 C 118.058594 124.328125 118.085938 124.296875 118.152344 124.273438 C 118.410156 124.148438 118.65625 124.035156 118.914062 123.910156 C 119.882812 123.484375 120.882812 123.109375 121.90625 122.804688 C 121.90625 122.804688 122.378906 122.671875 122.445312 122.648438 C 122.699219 122.59375 122.949219 122.539062 123.214844 122.5 C 123.84375 122.390625 124.449219 122.3125 125.085938 122.261719 C 126.695312 122.125 127.929688 120.546875 127.769531 118.964844 C 127.605469 117.332031 126.101562 116.160156 124.476562 116.285156 C 119.492188 116.699219 114.777344 118.808594 110.863281 121.90625 C 108.304688 123.9375 106.183594 126.320312 104.007812 128.738281 C 102.917969 129.945312 103.210938 131.96875 104.453125 132.980469 Z M 93.21875 156.132812 C 94.832031 156.308594 96.410156 155.292969 96.652344 153.628906 C 96.703125 153.28125 96.796875 152.945312 96.875 152.59375 C 96.929688 152.402344 96.96875 152.230469 97.019531 152.039062 C 97.191406 151.507812 97.367188 150.976562 97.554688 150.457031 C 98.054688 149.183594 98.652344 147.910156 99.324219 146.699219 C 99.433594 146.503906 99.542969 146.335938 99.640625 146.15625 C 99.640625 146.15625 99.640625 146.15625 99.652344 146.140625 L 99.664062 146.125 C 99.914062 145.757812 100.160156 145.390625 100.40625 145.023438 C 100.941406 144.238281 101.535156 143.507812 102.148438 142.789062 C 103.164062 141.601562 102.992188 139.5 101.714844 138.5625 C 100.375 137.574219 98.597656 137.730469 97.488281 138.996094 C 95.195312 141.65625 93.316406 144.753906 92.054688 148.046875 C 91.480469 149.546875 90.945312 151.125 90.707031 152.71875 C 90.46875 154.28125 91.59375 155.972656 93.21875 156.132812 Z M 90.308594 161.960938 C 88.609375 161.765625 87.25 162.832031 86.875 164.464844 C 85.8125 169.164062 84.789062 174.097656 85.761719 178.898438 C 85.929688 179.707031 86.199219 180.390625 86.851562 180.921875 C 87.425781 181.390625 88.3125 181.699219 89.054688 181.578125 C 90.527344 181.355469 92.078125 179.929688 91.742188 178.28125 C 91.527344 177.179688 91.402344 176.066406 91.375 174.957031 C 91.363281 174.714844 91.367188 174.460938 91.367188 174.203125 C 91.371094 174.101562 91.375 173.976562 91.378906 173.875 C 91.402344 173.273438 91.457031 172.699219 91.523438 172.105469 C 91.792969 169.84375 92.292969 167.613281 92.792969 165.378906 C 93.136719 163.847656 91.804688 162.121094 90.308594 161.960938 Z M 96.308594 207.371094 C 95.800781 206.027344 95.335938 204.664062 94.910156 203.285156 C 94.695312 202.566406 94.496094 201.859375 94.292969 201.152344 C 94.199219 200.792969 94.105469 200.433594 94.011719 200.070312 C 93.988281 199.945312 93.960938 199.847656 93.933594 199.722656 C 93.929688 199.667969 93.910156 199.597656 93.882812 199.5 C 93.253906 196.660156 92.816406 193.769531 92.578125 190.859375 C 92.460938 189.292969 90.871094 187.945312 89.285156 188.179688 C 87.644531 188.421875 86.460938 189.808594 86.601562 191.476562 C 87.097656 197.621094 88.472656 203.707031 90.652344 209.464844 C 91.214844 210.929688 93.019531 211.855469 94.519531 211.21875 C 96.039062 210.617188 96.910156 208.949219 96.308594 207.371094 Z M 110.390625 229.570312 C 108.082031 229.007812 105.886719 227.167969 104.34375 225.035156 C 102.582031 222.566406 101.578125 219.964844 100.472656 216.941406 C 99.9375 215.472656 98.09375 214.566406 96.605469 215.191406 C 95.101562 215.828125 94.273438 217.480469 94.847656 219.0625 C 96.113281 222.550781 97.558594 226.105469 99.835938 229.046875 C 102.285156 232.226562 105.527344 234.558594 109.453125 235.503906 C 110.988281 235.875 112.714844 234.515625 112.886719 233 C 113.082031 231.269531 112.023438 229.96875 110.390625 229.570312 Z M 133.988281 225.355469 C 133.71875 224.640625 133.089844 223.921875 132.378906 223.65625 C 130.761719 223.039062 129.28125 223.71875 128.457031 225.140625 C 128.53125 225.046875 128.59375 224.941406 128.652344 224.835938 C 128.441406 225.15625 128.183594 225.410156 127.929688 225.695312 C 127.703125 225.875 127.480469 226.054688 127.242188 226.222656 C 127.121094 226.304688 126.957031 226.378906 126.824219 226.476562 C 126.8125 226.492188 126.785156 226.496094 126.773438 226.511719 C 126.011719 226.875 125.183594 227.160156 124.386719 227.414062 C 122.796875 227.90625 121.1875 228.328125 119.699219 229.105469 C 118.957031 229.511719 118.34375 229.917969 118 230.722656 C 117.710938 231.390625 117.648438 232.324219 117.929688 232.992188 C 118.246094 233.714844 118.785156 234.386719 119.542969 234.695312 C 120.226562 234.964844 121.136719 235.113281 121.8125 234.757812 C 123.679688 233.769531 125.777344 233.382812 127.738281 232.652344 C 128.890625 232.21875 130.042969 231.660156 131.039062 230.945312 C 132.273438 230.0625 133.191406 228.96875 133.925781 227.65625 C 134.273438 227.035156 134.230469 226.042969 133.988281 225.355469 Z M 134.308594 217.289062 C 134.023438 218.839844 135.222656 220.539062 136.808594 220.71875 C 138.464844 220.90625 139.957031 219.867188 140.242188 218.214844 C 140.964844 214.121094 140.902344 209.855469 139.992188 205.804688 C 139.808594 204.980469 139.570312 204.324219 138.902344 203.777344 C 138.328125 203.3125 137.441406 203.003906 136.699219 203.121094 C 135.929688 203.246094 135.148438 203.566406 134.675781 204.214844 C 134.238281 204.816406 133.835938 205.652344 134.015625 206.417969 C 134.53125 208.703125 134.753906 211.03125 134.722656 213.355469 C 134.65625 214.671875 134.519531 215.984375 134.308594 217.289062 Z M 123.234375 193.554688 C 123.25 193.566406 123.25 193.566406 123.265625 193.582031 C 123.179688 193.5625 123.117188 193.539062 123.03125 193.519531 C 123.164062 193.578125 123.269531 193.636719 123.40625 193.695312 C 124.371094 194.351562 125.277344 195.140625 126.136719 195.890625 C 127.183594 196.796875 128.164062 197.75 129.117188 198.734375 C 129.625 199.25 130.644531 199.457031 131.320312 199.390625 C 132.054688 199.3125 132.910156 198.898438 133.347656 198.296875 C 133.808594 197.664062 134.128906 196.890625 134.003906 196.09375 C 133.890625 195.25 133.503906 194.675781 132.914062 194.066406 C 131.757812 192.890625 130.574219 191.773438 129.308594 190.691406 C 127.828125 189.433594 126.328125 188.109375 124.390625 187.695312 C 122.847656 187.371094 121.128906 188.660156 120.957031 190.199219 C 120.808594 191.8125 121.753906 193.125 123.234375 193.554688 Z M 115.167969 186.9375 C 114.695312 186.34375 113.960938 185.722656 113.175781 185.703125 C 109.277344 185.578125 105.414062 185.71875 101.554688 186.273438 C 100.769531 186.382812 100.035156 186.742188 99.53125 187.367188 C 99.0625 187.941406 98.753906 188.828125 98.871094 189.570312 C 99.101562 191.128906 100.503906 192.480469 102.164062 192.25 C 105.605469 191.769531 109.101562 191.566406 112.570312 191.648438 C 112.472656 191.644531 112.398438 191.636719 112.300781 191.632812 C 113.101562 191.664062 113.777344 191.59375 114.453125 191.113281 C 115.066406 190.679688 115.609375 189.882812 115.691406 189.117188 C 115.769531 188.355469 115.65625 187.542969 115.167969 186.9375 Z M 81.609375 197.417969 C 81.292969 196.695312 80.753906 196.027344 79.996094 195.71875 C 79.746094 195.644531 79.496094 195.570312 79.246094 195.496094 C 78.710938 195.421875 78.21875 195.460938 77.726562 195.652344 C 75.054688 196.300781 72.492188 197.546875 70.292969 199.199219 C 69.644531 199.679688 69.179688 200.410156 69.058594 201.191406 C 68.960938 201.914062 69.125 202.824219 69.582031 203.402344 C 70.074219 204.035156 70.765625 204.546875 71.574219 204.636719 C 72.335938 204.714844 73.148438 204.574219 73.785156 204.109375 C 74.457031 203.597656 75.183594 203.152344 75.925781 202.75 C 77.171875 202.136719 78.476562 201.644531 79.839844 201.304688 C 80.546875 201.132812 81.261719 200.316406 81.539062 199.691406 C 81.84375 199.03125 81.890625 198.117188 81.609375 197.417969 Z M 62.609375 206.128906 C 61.625 204.863281 59.769531 204.414062 58.40625 205.421875 C 57.585938 206.050781 56.734375 206.621094 55.847656 207.140625 C 55.632812 207.277344 55.402344 207.398438 55.171875 207.523438 C 55.160156 207.539062 55.160156 207.539062 55.132812 207.542969 C 55.089844 207.558594 55.050781 207.578125 54.996094 207.613281 C 54.507812 207.863281 54.019531 208.082031 53.515625 208.320312 C 52.5625 208.734375 51.601562 209.089844 50.632812 209.386719 C 50.148438 209.535156 49.664062 209.660156 49.191406 209.792969 C 49.125 209.8125 49.039062 209.824219 48.96875 209.84375 C 48.691406 209.902344 48.414062 209.957031 48.117188 210.003906 C 46.578125 210.277344 45.191406 211.601562 45.433594 213.300781 C 45.644531 214.816406 47.078125 216.292969 48.726562 215.980469 C 53.480469 215.121094 58.003906 213.242188 61.882812 210.320312 C 63.152344 209.363281 63.625 207.421875 62.609375 206.128906 Z M 38.386719 213.898438 C 37.75 212.398438 36.097656 211.570312 34.519531 212.144531 C 33.695312 212.429688 32.847656 212.671875 32.003906 212.890625 C 30.09375 213.300781 28.148438 213.5 26.195312 213.488281 C 25.949219 213.46875 25.695312 213.46875 25.449219 213.449219 C 24.648438 213.390625 23.902344 213.511719 23.238281 213.976562 C 22.628906 214.410156 22.082031 215.207031 22.003906 215.972656 C 21.925781 216.734375 22.050781 217.5625 22.527344 218.183594 C 23.003906 218.804688 23.714844 219.355469 24.519531 219.417969 C 28.636719 219.71875 32.730469 219.195312 36.617188 217.785156 C 38.097656 217.234375 39.007812 215.386719 38.386719 213.898438 Z M 14.933594 212.285156 C 14.394531 211.613281 13.761719 211.25 12.941406 211.050781 C 12.429688 210.917969 11.933594 210.796875 11.433594 210.648438 C 9.523438 210.078125 7.65625 209.359375 5.859375 208.488281 C 4.421875 207.8125 2.460938 208.570312 1.886719 210.039062 C 1.277344 211.613281 1.902344 213.285156 3.429688 214.011719 C 6.171875 215.339844 9.046875 216.308594 12.011719 217.015625 C 12.710938 217.171875 13.652344 216.902344 14.222656 216.488281 C 14.832031 216.054688 15.378906 215.257812 15.457031 214.496094 C 15.535156 213.730469 15.4375 212.902344 14.933594 212.285156 Z M 133.449219 118.78125 C 134.496094 120.125 136.234375 120.402344 137.652344 119.484375 C 137.800781 119.398438 137.945312 119.3125 138.09375 119.226562 C 138.839844 118.851562 139.621094 118.554688 140.441406 118.34375 C 141.222656 118.175781 142.011719 118.097656 142.808594 118.097656 C 143.652344 118.140625 144.464844 118.257812 145.269531 118.472656 C 145.957031 118.644531 146.921875 118.34375 147.480469 117.945312 C 148.089844 117.511719 148.636719 116.714844 148.714844 115.953125 C 148.792969 115.1875 148.667969 114.363281 148.191406 113.742188 C 148.003906 113.5625 147.808594 113.351562 147.632812 113.15625 C 147.214844 112.816406 146.734375 112.582031 146.199219 112.507812 C 142.132812 111.445312 137.664062 112.332031 134.160156 114.574219 C 132.851562 115.421875 132.496094 117.539062 133.449219 118.78125 Z M 133.449219 118.78125 " fill-opacity="1" fill-rule="nonzero"/></g></g></g></g><g clip-path="url(#bd79683754)"><g clip-path="url(#1d12c43a04)"><g clip-path="url(#7a24420715)"><g clip-path="url(#a6320c8331)"><path fill="#f9db28" d="M 337.058594 205.09375 C 340.824219 198.308594 340.433594 190.253906 337.609375 183.222656 C 334.714844 176.03125 329.75 169.789062 324.1875 164.40625 C 326.773438 162.375 329.371094 160.324219 331.972656 158.304688 C 334.753906 156.125 337.777344 154.058594 340.207031 151.457031 C 344.46875 146.886719 344.351562 140.246094 339.410156 136.226562 C 334.703125 132.367188 327.972656 133.144531 322.828125 135.65625 C 319.832031 137.121094 317.144531 139.121094 314.894531 141.53125 C 314.390625 139.644531 313.675781 137.796875 312.769531 136.050781 C 310.3125 131.363281 305.863281 126.804688 300.121094 127.355469 C 294.390625 127.890625 290.542969 132.902344 289.238281 138.148438 C 288.804688 139.890625 288.507812 141.871094 288.449219 143.816406 C 288.253906 143.863281 288.046875 143.929688 287.851562 143.976562 C 277.410156 142.84375 266.683594 145.773438 259.921875 153.792969 C 257.3125 156.871094 254.65625 163.910156 254.65625 163.910156 C 253.066406 170.300781 254.429688 176.8125 257.425781 182.898438 C 258.5 185.066406 259.644531 187.214844 260.882812 189.308594 C 261.011719 189.59375 261.167969 189.851562 261.332031 190.0625 C 264.742188 195.734375 268.742188 201.035156 273.488281 205.675781 C 284.992188 216.957031 301.542969 223.398438 317.582031 219.335938 C 325.550781 217.320312 333.011719 212.375 337.058594 205.09375 Z M 314.964844 152.707031 C 316.675781 148.128906 319.777344 144.289062 324.050781 141.769531 C 327.277344 139.871094 332.375 138.203125 335.625 140.875 C 339.496094 144.054688 335.855469 147.605469 333.019531 149.847656 C 328.589844 153.355469 324.140625 156.820312 319.695312 160.3125 C 317.171875 158.179688 314.550781 156.199219 311.789062 154.386719 C 313.0625 154.597656 314.425781 154.128906 314.964844 152.707031 Z M 259.839844 168.675781 C 260.335938 161.53125 265.316406 155.03125 271.71875 152.023438 C 274.058594 150.925781 276.523438 150.246094 279.039062 149.886719 C 275.011719 153.5625 271.8125 158.097656 268.84375 162.660156 C 265.960938 167.089844 262.875 171.765625 261.800781 177.019531 C 261.730469 177.328125 261.664062 177.660156 261.613281 177.980469 C 260.40625 174.929688 259.628906 171.789062 259.839844 168.675781 Z M 303.273438 133.980469 C 308.671875 137.058594 310.550781 145.46875 309.226562 151.0625 C 309.046875 151.820312 309.203125 152.488281 309.539062 153.023438 C 305.773438 150.734375 301.839844 148.71875 297.761719 147.03125 C 297.492188 146.472656 296.992188 146.011719 296.195312 145.753906 C 295.8125 145.621094 295.417969 145.535156 295.019531 145.417969 C 294.863281 145.261719 294.691406 145.125 294.496094 145.015625 C 294.507812 144.714844 294.492188 144.417969 294.503906 144.117188 C 294.546875 143.144531 294.621094 142.167969 294.75 141.214844 C 295 139.480469 295.4375 137.738281 296.410156 136.257812 C 297.941406 133.933594 300.660156 132.5 303.273438 133.980469 Z M 268.085938 189.535156 C 267.597656 188.804688 267.109375 188.042969 266.601562 187.265625 C 266.445312 184.449219 267.097656 181.359375 267.617188 178.628906 C 268.449219 174.183594 271.074219 170.195312 273.5 166.453125 C 276.0625 162.515625 278.800781 158.328125 282.214844 155.085938 C 283.789062 153.597656 286.417969 151.007812 288.554688 150.03125 C 289.121094 150.128906 289.699219 150.238281 290.253906 150.355469 C 290.539062 150.636719 290.890625 150.871094 291.375 151.035156 C 294.464844 152.128906 297.53125 153.4375 300.515625 154.910156 C 293.195312 157.558594 287.582031 165.117188 283.199219 171.039062 C 277.726562 178.457031 274.203125 187.066406 272.917969 196.132812 C 271.191406 194.03125 269.585938 191.816406 268.085938 189.535156 Z M 284.277344 206.855469 C 282.175781 205.378906 280.210938 203.730469 278.371094 201.996094 C 278.832031 192.515625 281.78125 183.308594 287.335938 175.570312 C 289.941406 171.925781 292.820312 168.324219 296.003906 165.148438 C 298.84375 162.289062 302.144531 159.984375 306.308594 159.910156 C 307.121094 159.898438 307.71875 159.609375 308.148438 159.207031 C 313.417969 162.566406 318.265625 166.542969 322.476562 171.109375 C 314.742188 172.363281 308.480469 181.097656 306.058594 187.816406 C 302.871094 196.707031 303.824219 206.480469 308.433594 214.554688 C 299.875 214.722656 291.230469 211.796875 284.277344 206.855469 Z M 321.261719 211.679688 C 319.261719 212.609375 317.191406 213.28125 315.078125 213.753906 C 310.402344 207.15625 308.769531 198.664062 311.3125 190.878906 C 313.222656 185.011719 319.128906 175.15625 326.65625 177.332031 C 326.949219 177.414062 327.234375 177.414062 327.515625 177.382812 C 327.683594 177.625 327.878906 177.859375 328.03125 178.113281 C 331.445312 183.089844 334.316406 189.207031 333.824219 195.425781 C 333.246094 202.792969 327.777344 208.65625 321.261719 211.679688 Z M 321.261719 211.679688 " fill-opacity="1" fill-rule="nonzero"/></g></g></g></g></svg>